<svg xmlns="http://www.w3.org/2000/svg" xml:space="preserve" viewBox="0 0 1000 1000"><path fill="currentColor" d="M615 1000H465v-72l-47-46V552l-39-77H166L30 339V177c0-3 0-10 6-16l6-6L191 6l6-6h215v38l115 46V62h156l155 279h132v60L799 571v30l39 39v71l-89 89v66l-134 134Zm-110-40h94l110-111v-65l89-90v-37l-39-39v-63l171-171v-3H814L659 102h-92v41L372 65V40H214l-72 72-53 53-18 18-1 1v138l113 112h221l54 109v322l47 47v48ZM50 195Zm0 0Zm15-6Zm843 689h-87v-56l55-108h86v55l-54 109Zm-46-40h21l39-78v-6h-22l-39 77v7Z"/></svg>